<svg width="111" height="100" viewBox="0 0 111 100" fill="none" xmlns="http://www.w3.org/2000/svg">
<path d="M22.95 53.8L22.78 53.97C19.21 57.4267 16.4333 61.5633 14.45 66.38C12.4667 71.14 11.475 76.0417 11.475 81.085H2.635V81H2.55L2.635 37.99C2.635 33.0033 5.66667 29.0367 11.73 26.09C16.6033 23.71 21.845 22.52 27.455 22.52C35.105 22.52 42.0467 24.645 48.28 28.895V39.18C45.7867 36.0633 42.67 33.6267 38.93 31.87C35.2467 30.0567 31.4217 29.15 27.455 29.15C24.055 29.15 20.7683 29.8017 17.595 31.105C13.515 32.805 11.475 35.1 11.475 37.99V54.82C14.3083 50.9667 17.6233 47.7933 21.42 45.3C24.7633 43.09 27.795 41.9567 30.515 41.9C31.2517 41.73 32.0167 41.645 32.81 41.645C35.53 41.645 37.8817 42.6367 39.865 44.62C41.8483 46.5467 42.84 48.8983 42.84 51.675C42.84 54.4517 41.8483 56.8317 39.865 58.815C37.8817 60.7417 35.53 61.705 32.81 61.705C30.43 61.705 28.305 60.9683 26.435 59.495C24.6217 57.965 23.46 56.0667 22.95 53.8ZM37.06 51.675C37.06 50.5417 36.635 49.55 35.785 48.7C34.935 47.85 33.9433 47.425 32.81 47.425C31.62 47.425 30.6 47.85 29.75 48.7C28.9567 49.55 28.56 50.5417 28.56 51.675C28.56 52.8083 28.9567 53.8 29.75 54.65C30.6 55.5 31.62 55.925 32.81 55.925C33.9433 55.925 34.935 55.5 35.785 54.65C36.635 53.8 37.06 52.8083 37.06 51.675ZM66.4766 81H57.6366V29.235H52.1116V22.605H80.5016C84.865 22.605 88.5766 23.54 91.6366 25.41C95.32 27.6767 97.1616 30.85 97.1616 34.93C97.1616 41.6733 97.1616 44.6483 97.1616 43.855C97.2183 47.3683 95.7733 50.3717 92.8266 52.865C95.6033 54.7917 97.0483 57.3417 97.1616 60.515V61.195C97.5583 61.1383 97.955 61.11 98.3516 61.11C101.128 61.11 103.48 62.1017 105.407 64.085C107.39 66.0683 108.382 68.42 108.382 71.14C108.382 73.9167 107.39 76.2967 105.407 78.28C103.48 80.2067 101.128 81.17 98.3516 81.17C95.6316 81.17 93.28 80.235 91.2966 78.365C89.3133 76.4383 88.3216 74.1433 88.3216 71.48C88.3216 69.1 88.3216 65.53 88.3216 60.77C88.3216 58.1067 86.1116 56.69 81.6916 56.52C78.915 56.6333 77.215 56.6333 76.5916 56.52V49.975C76.705 49.975 77.5833 49.9467 79.2266 49.89C83.93 49.8333 86.735 48.8417 87.6416 46.915C88.095 45.8383 88.3216 41.8717 88.3216 35.015C88.3216 31.1617 85.715 29.235 80.5016 29.235H66.4766V81ZM102.602 71.14C102.602 70.0067 102.177 69.015 101.327 68.165C100.533 67.315 99.5416 66.89 98.3516 66.89C97.2183 66.89 96.2266 67.315 95.3766 68.165C94.5266 69.015 94.1016 70.0067 94.1016 71.14C94.1016 72.33 94.5266 73.35 95.3766 74.2C96.2266 74.9933 97.2183 75.39 98.3516 75.39C99.5416 75.39 100.533 74.9933 101.327 74.2C102.177 73.35 102.602 72.33 102.602 71.14Z" fill="#D4AF37"/>
</svg>
